<svg width="17" height="17" viewBox="0 0 17 17" fill="none" xmlns="http://www.w3.org/2000/svg">
<path d="M1.80088 1.67327H5.55732L6.76811 4.70024L4.82303 5.99696C4.59028 6.15212 4.45048 6.41335 4.45048 6.69308C4.4526 6.77141 4.45048 6.69391 4.45048 6.69391L4.45048 6.69479L4.45049 6.69666L4.45051 6.70088L4.45064 6.71121C4.45076 6.71892 4.45097 6.72829 4.45132 6.73925C4.45203 6.76118 4.45331 6.78954 4.4556 6.8239C4.46018 6.89258 4.46881 6.98543 4.48503 7.09899C4.51746 7.32596 4.58039 7.63689 4.70257 8.00344C4.9479 8.73943 5.42995 9.69237 6.36879 10.6312C7.30763 11.57 8.26057 12.0521 8.99656 12.2974C9.3631 12.4196 9.67404 12.4825 9.90101 12.515C10.0146 12.5312 10.1074 12.5398 10.1761 12.5444C10.2105 12.5467 10.2388 12.548 10.2607 12.5487C10.2717 12.549 10.2811 12.5492 10.2888 12.5494L10.2991 12.5495L10.3033 12.5495L10.3052 12.5495L10.3061 12.5495C10.3061 12.5495 10.3995 12.5444 10.3069 12.5495C10.6238 12.5495 10.9135 12.3705 11.0552 12.087L11.6155 10.9665L15.3267 11.585V15.1991C13.5605 15.4546 8.79044 15.7063 5.04207 11.9579C1.2937 8.20956 1.54545 3.43949 1.80088 1.67327ZM6.18536 7.09975L7.69627 6.09248C8.35465 5.65357 8.61557 4.81348 8.3217 4.0788L7.11091 1.05183C6.8568 0.416562 6.24153 0 5.55732 0H1.75716C0.997074 0 0.281601 0.528052 0.156822 1.35276C-0.127057 3.22899 -0.513454 8.76877 3.85889 13.1411C8.23123 17.5135 13.771 17.1271 15.6472 16.8432C16.4719 16.7184 17 16.0029 17 15.2428V11.585C17 10.767 16.4086 10.069 15.6018 9.93448L11.8906 9.31595C11.166 9.19519 10.4474 9.56112 10.1189 10.2181L9.82902 10.7979C9.7379 10.7756 9.63619 10.7469 9.5257 10.71C9.00674 10.537 8.2864 10.1825 7.55197 9.44803C6.81754 8.7136 6.46296 7.99326 6.28997 7.4743C6.24323 7.33407 6.20958 7.20798 6.18536 7.09975Z" fill="#1FBC53"/>
</svg>
