<svg width="24" height="24" viewBox="0 0 24 24" fill="none" xmlns="http://www.w3.org/2000/svg">
<path d="M24 11.9997C24 18.6276 18.6276 24 12.0002 24C5.37252 24 0 18.6276 0 11.9997C0 5.37244 5.37252 0 12.0002 0C18.6276 0 24 5.37244 24 11.9997Z" fill="#FF5F5F"/>
<path fill-rule="evenodd" clip-rule="evenodd" d="M6 8.11111C6 7.49746 6.53726 7 7.2 7H16.8C17.4627 7 18 7.49746 18 8.11111V15.8889C18 16.5025 17.4627 17 16.8 17H7.2C6.53726 17 6 16.5025 6 15.8889V8.11111ZM7.2 8.11111H16.8V8.9249L12 11.8879L7.2 8.9249V8.11111ZM7.2 10.2603V15.8889H16.8V10.2603L12.3328 13.0178C12.1313 13.1422 11.8687 13.1422 11.6672 13.0178L7.2 10.2603Z" fill="white"/>
</svg>
