<svg width="24" height="24" viewBox="0 0 24 24" fill="none" xmlns="http://www.w3.org/2000/svg">
<path d="M12 24C18.6274 24 24 18.6274 24 12C24 5.37258 18.6274 0 12 0C5.37258 0 0 5.37258 0 12C0 18.6274 5.37258 24 12 24Z" fill="url(#paint0_linear)"/>
<path fill-rule="evenodd" clip-rule="evenodd" d="M5.43189 11.8732C8.93014 10.3491 11.2628 9.34428 12.43 8.85881C15.7626 7.47269 16.455 7.23191 16.9064 7.22396C17.0056 7.22221 17.2276 7.24681 17.3714 7.36348C17.4928 7.46199 17.5262 7.59506 17.5422 7.68845C17.5581 7.78185 17.578 7.99461 17.5622 8.16085C17.3816 10.0583 16.6002 14.663 16.2027 16.7882C16.0345 17.6875 15.7032 17.989 15.3826 18.0185C14.6857 18.0826 14.1566 17.558 13.4816 17.1156C12.4255 16.4232 11.8288 15.9923 10.8036 15.3167C9.61884 14.5359 10.3869 14.1068 11.0621 13.4055C11.2388 13.222 14.3092 10.4292 14.3686 10.1759C14.376 10.1442 14.3829 10.0261 14.3128 9.96373C14.2426 9.90136 14.139 9.92269 14.0643 9.93965C13.9584 9.96369 12.2712 11.0789 9.00264 13.2852C8.52373 13.6141 8.08994 13.7743 7.70129 13.7659C7.27283 13.7567 6.44864 13.5237 5.83594 13.3245C5.08444 13.0802 4.48716 12.9511 4.53917 12.5362C4.56626 12.3201 4.86383 12.0991 5.43189 11.8732Z" fill="white"/>
<defs>
<linearGradient id="paint0_linear" x1="12" y1="0" x2="12" y2="23.822" gradientUnits="userSpaceOnUse">
<stop stop-color="#2AABEE"/>
<stop offset="1" stop-color="#229ED9"/>
</linearGradient>
</defs>
</svg>
