<svg width="24" height="24" viewBox="0 0 24 24" fill="none" xmlns="http://www.w3.org/2000/svg">
<path d="M24 11.9997C24 18.6276 18.6276 24 12.0002 24C5.37252 24 0 18.6276 0 11.9997C0 5.37244 5.37252 0 12.0002 0C18.6276 0 24 5.37244 24 11.9997Z" fill="#3CBA64"/>
<path d="M9.45526 16.3863L9.69187 16.5274C10.5594 17.0445 11.5464 17.3177 12.5452 17.3177C15.6278 17.3177 18.1351 14.8097 18.1351 11.7282C18.1351 8.64573 15.6278 6.13773 12.5452 6.13773C9.4633 6.13773 6.95559 8.64573 6.95559 11.7282C6.95559 12.7461 7.238 13.7479 7.77311 14.6263L7.91805 14.8642L7.35955 16.9484L9.45526 16.3863ZM5.51678 18.7908L6.517 15.0575C5.95086 14.0354 5.6527 12.8903 5.6527 11.7282C5.6527 7.92761 8.74484 4.83551 12.5452 4.83551C16.3459 4.83551 19.4384 7.92761 19.4384 11.7282C19.4384 15.5288 16.3459 18.6209 12.5452 18.6209C11.4044 18.6209 10.2776 18.332 9.26904 17.7854L5.51678 18.7908Z" fill="white"/>
<path fill-rule="evenodd" clip-rule="evenodd" d="M15.1091 12.6868C14.826 12.5169 14.4567 12.3278 14.1226 12.464C13.8657 12.5688 13.7024 12.9705 13.5358 13.1757C13.4505 13.2805 13.3487 13.2966 13.2182 13.2447C12.2555 12.8606 11.5177 12.2178 10.9871 11.333C10.897 11.1951 10.9134 11.0871 11.0211 10.9595C11.182 10.7703 11.3831 10.5555 11.4274 10.3016C11.4701 10.0468 11.3511 9.74925 11.2452 9.52257C11.1114 9.23244 10.9611 8.81955 10.671 8.65541C10.4039 8.50472 10.0525 8.58967 9.815 8.7827C9.40496 9.11706 9.20684 9.64026 9.21258 10.1589C9.21455 10.3064 9.23245 10.4539 9.26708 10.5956C9.34981 10.938 9.50788 11.2576 9.68581 11.5615C9.82008 11.7908 9.96601 12.0126 10.1234 12.2267C10.6379 12.9256 11.2788 13.5331 12.0199 13.9875C12.3909 14.2144 12.7898 14.4138 13.2034 14.5501C13.6671 14.7033 14.08 14.8627 14.5798 14.7674C15.1042 14.6681 15.6204 14.3442 15.8289 13.8393C15.8905 13.6893 15.9216 13.5225 15.8872 13.3649C15.8158 13.0385 15.3734 12.8446 15.1091 12.6868Z" fill="white"/>
</svg>
